<?xml version="1.0" encoding="UTF-8" standalone="no"?>
<!-- Created with Inkscape (http://www.inkscape.org/) -->

<svg
   width="74.608543mm"
   height="68.891045mm"
   viewBox="0 0 74.608543 68.891044"
   version="1.1"
   id="svg5"
   inkscape:version="1.2 (dc2aeda, 2022-05-15)"
   sodipodi:docname="demographics.svg"
   inkscape:export-filename="../final_figures/age_and_sex_distribution.png"
   inkscape:export-xdpi="300"
   inkscape:export-ydpi="300"
   xmlns:inkscape="http://www.inkscape.org/namespaces/inkscape"
   xmlns:sodipodi="http://sodipodi.sourceforge.net/DTD/sodipodi-0.dtd"
   xmlns="http://www.w3.org/2000/svg"
   xmlns:svg="http://www.w3.org/2000/svg">
  <sodipodi:namedview
     id="namedview7"
     pagecolor="#ffffff"
     bordercolor="#000000"
     borderopacity="0.25"
     inkscape:showpageshadow="2"
     inkscape:pageopacity="0.0"
     inkscape:pagecheckerboard="0"
     inkscape:deskcolor="#d1d1d1"
     inkscape:document-units="mm"
     showgrid="false"
     inkscape:zoom="2.3786088"
     inkscape:cx="136.21408"
     inkscape:cy="195.70263"
     inkscape:window-width="1920"
     inkscape:window-height="1027"
     inkscape:window-x="0"
     inkscape:window-y="25"
     inkscape:window-maximized="1"
     inkscape:current-layer="layer1" />
  <defs
     id="defs2">
    <clipPath
       id="cpMC4wMHwyMTYuMDB8MC4wMHwxODAuMDA=">
      <rect
         x="0"
         y="0"
         width="216"
         height="180"
         id="rect641" />
    </clipPath>
    <clipPath
       id="clipPath1147">
      <rect
         x="0"
         y="0"
         width="216"
         height="180"
         id="rect1145" />
    </clipPath>
    <clipPath
       clipPathUnits="userSpaceOnUse"
       id="clipPath1945">
      <rect
         x="43.43"
         y="6.9699993"
         width="165.60001"
         height="131.69"
         id="rect1947"
         style="stroke-width:0.999998" />
    </clipPath>
    <clipPath
       clipPathUnits="userSpaceOnUse"
       id="clipPath1949">
      <rect
         x="43.43"
         y="6.9699993"
         width="165.60001"
         height="131.69"
         id="rect1951"
         style="stroke-width:0.999998" />
    </clipPath>
    <clipPath
       clipPathUnits="userSpaceOnUse"
       id="clipPath4721">
      <rect
         x="-5.6608243e-08"
         y="-1.317762e-08"
         width="216"
         height="180"
         id="rect4723"
         style="stroke-width:0.999998" />
    </clipPath>
    <clipPath
       clipPathUnits="userSpaceOnUse"
       id="clipPath4725">
      <rect
         x="-5.6608243e-08"
         y="-1.317762e-08"
         width="216"
         height="180"
         id="rect4727"
         style="stroke-width:0.999998" />
    </clipPath>
    <clipPath
       clipPathUnits="userSpaceOnUse"
       id="clipPath4729">
      <rect
         x="-5.6608243e-08"
         y="-1.317762e-08"
         width="216"
         height="180"
         id="rect4731"
         style="stroke-width:0.999998" />
    </clipPath>
    <clipPath
       clipPathUnits="userSpaceOnUse"
       id="clipPath4733">
      <rect
         x="-5.6608243e-08"
         y="-1.317762e-08"
         width="216"
         height="180"
         id="rect4735"
         style="stroke-width:0.999998" />
    </clipPath>
    <clipPath
       clipPathUnits="userSpaceOnUse"
       id="clipPath4737">
      <rect
         x="-5.6608243e-08"
         y="-1.317762e-08"
         width="216"
         height="180"
         id="rect4739"
         style="stroke-width:0.999998" />
    </clipPath>
    <clipPath
       clipPathUnits="userSpaceOnUse"
       id="clipPath4741">
      <rect
         x="-5.6608243e-08"
         y="-1.317762e-08"
         width="216"
         height="180"
         id="rect4743"
         style="stroke-width:0.999998" />
    </clipPath>
  </defs>
  <g
     inkscape:label="Layer 1"
     inkscape:groupmode="layer"
     id="layer1">
    <rect
       width="35.277779%"
       height="35.277779%"
       style="fill:none;stroke:none;stroke-width:0.352778;stroke-linecap:round;stroke-linejoin:round;stroke-miterlimit:10"
       id="rect639"
       x="17.072742"
       y="14.311653" />
    <g
       clip-path="url(#cpMC4wMHwyMTYuMDB8MC4wMHwxODAuMDA=)"
       id="g646"
       transform="matrix(0.35277777,0,0,0.35277777,17.072744,14.311655)" />
    <polygon
       points="88.59,129.33 88.59,129.11 88.59,128.88 88.59,128.66 88.59,128.44 88.59,128.21 88.59,127.99 88.59,127.77 88.59,127.55 88.59,127.32 88.59,127.1 88.59,126.88 88.59,126.65 88.59,126.43 88.59,126.21 88.59,125.98 88.59,125.76 88.59,125.54 88.59,125.31 88.59,125.09 88.59,124.87 88.59,124.64 88.59,124.42 88.59,124.2 88.59,123.98 88.59,123.75 88.59,123.53 88.59,123.31 88.59,123.08 88.59,122.86 88.59,122.64 88.59,122.41 88.59,122.19 88.59,121.97 88.59,121.74 88.59,121.52 88.59,121.3 88.59,121.07 88.59,120.85 88.59,120.63 88.59,120.41 88.59,120.18 88.59,119.96 88.59,119.74 88.59,119.51 88.59,119.29 88.59,119.07 88.59,118.84 88.59,118.62 88.59,118.4 88.59,118.17 88.59,117.95 88.59,117.73 88.59,117.5 88.59,117.28 88.59,117.06 88.59,116.84 88.59,116.61 88.59,116.39 88.59,116.17 88.59,115.94 88.59,115.72 88.59,115.5 88.59,115.27 88.59,115.05 88.59,114.83 88.59,114.6 88.59,114.38 88.59,114.16 88.59,113.93 88.59,113.71 88.59,113.49 88.59,113.27 88.59,113.04 88.59,112.82 88.59,112.6 88.59,112.37 88.59,112.15 88.59,111.93 88.59,111.7 88.59,111.48 88.59,111.26 88.59,111.03 88.59,110.81 88.59,110.59 88.59,110.36 88.59,110.14 88.59,109.92 88.59,109.7 88.59,109.47 88.59,109.25 88.59,109.03 88.59,108.8 88.59,108.58 88.59,108.36 88.59,108.13 88.59,107.91 88.59,107.69 88.59,107.46 88.59,107.24 88.59,107.02 88.59,106.79 88.59,106.57 88.59,106.35 88.59,106.13 88.59,105.9 88.59,105.68 88.59,105.46 88.59,105.23 88.59,105.01 88.59,104.79 88.59,104.56 88.59,104.34 88.59,104.12 88.59,103.89 88.59,103.67 88.59,103.45 88.59,103.22 88.59,103 88.59,102.78 88.59,102.56 88.59,102.33 88.59,102.11 88.59,101.89 88.59,101.66 88.59,101.44 88.59,101.22 88.59,100.99 88.59,100.77 88.59,100.55 88.59,100.32 88.59,100.1 88.59,99.88 88.59,99.65 88.59,99.43 88.59,99.21 88.59,98.99 88.59,98.76 88.59,98.54 88.59,98.32 88.59,98.09 88.59,97.87 88.59,97.65 88.59,97.42 88.59,97.2 88.59,96.98 88.59,96.75 88.59,96.53 88.59,96.31 88.59,96.08 88.59,95.86 88.59,95.64 88.59,95.42 88.59,95.19 88.59,94.97 88.59,94.75 88.59,94.52 88.59,94.3 88.59,94.08 88.59,93.85 88.59,93.63 88.59,93.41 88.59,93.18 88.59,92.96 88.59,92.74 88.59,92.51 88.59,92.29 88.59,92.07 88.59,91.85 88.59,91.62 88.59,91.4 88.59,91.18 88.59,90.95 88.59,90.73 88.59,90.51 88.59,90.28 88.59,90.06 88.59,89.84 88.59,89.61 88.59,89.39 88.59,89.17 88.59,88.94 88.59,88.72 88.59,88.5 88.59,88.28 88.59,88.05 88.59,87.83 88.59,87.61 88.59,87.38 88.59,87.16 88.59,86.94 88.59,86.71 88.59,86.49 88.59,86.27 88.59,86.04 88.59,85.82 88.59,85.6 88.59,85.37 88.59,85.15 88.59,84.93 88.59,84.71 88.59,84.48 88.59,84.26 88.59,84.04 88.59,83.81 88.59,83.59 88.59,83.37 88.59,83.14 88.59,82.92 88.59,82.7 88.59,82.47 88.59,82.25 88.59,82.03 88.59,81.8 88.59,81.58 88.59,81.36 88.59,81.14 88.59,80.91 88.59,80.69 88.59,80.47 88.59,80.24 88.59,80.02 88.59,79.8 88.59,79.57 88.59,79.35 88.59,79.13 88.59,78.9 88.59,78.68 88.59,78.46 88.59,78.23 88.59,78.01 88.59,77.79 88.59,77.57 88.59,77.34 88.59,77.12 88.59,76.9 88.59,76.67 88.59,76.45 88.59,76.23 88.59,76 88.59,75.78 88.59,75.56 88.59,75.33 88.59,75.11 88.59,74.89 88.59,74.66 88.59,74.44 88.59,74.22 88.59,74 88.59,73.77 88.59,73.55 88.59,73.33 88.59,73.1 88.59,72.88 88.59,72.66 88.59,72.43 88.59,72.21 88.59,71.99 88.59,71.76 88.59,71.54 88.59,71.32 88.59,71.09 88.59,70.87 88.59,70.65 88.59,70.43 88.59,70.2 88.59,69.98 88.59,69.76 88.59,69.53 88.59,69.31 88.59,69.09 88.59,68.86 88.59,68.64 88.59,68.42 88.59,68.19 88.59,67.97 88.59,67.75 88.59,67.52 88.59,67.3 88.59,67.08 88.59,66.86 88.59,66.63 88.59,66.41 88.59,66.19 88.59,65.96 88.59,65.74 88.59,65.52 88.59,65.29 88.59,65.07 88.59,64.85 88.59,64.62 88.59,64.4 88.59,64.18 88.59,63.95 88.59,63.73 88.59,63.51 88.59,63.29 88.59,63.06 88.59,62.84 88.59,62.62 88.59,62.39 88.59,62.17 88.59,61.95 88.59,61.72 88.59,61.5 88.59,61.28 88.59,61.05 88.59,60.83 88.59,60.61 88.59,60.38 88.59,60.16 88.59,59.94 88.59,59.72 88.59,59.49 88.59,59.27 88.59,59.05 88.59,58.82 88.59,58.6 88.59,58.38 88.59,58.15 88.59,57.93 88.59,57.71 88.59,57.48 88.59,57.26 88.59,57.04 88.59,56.81 88.59,56.59 88.59,56.37 88.59,56.15 88.59,55.92 88.59,55.7 88.59,55.48 88.59,55.25 88.59,55.03 88.59,54.81 88.59,54.58 88.59,54.36 88.59,54.14 88.59,53.91 88.59,53.69 88.59,53.47 88.59,53.24 88.59,53.02 88.59,52.8 88.59,52.58 88.59,52.35 88.59,52.13 88.59,51.91 88.59,51.68 88.59,51.46 88.59,51.24 88.59,51.01 88.59,50.79 88.59,50.57 88.59,50.34 88.59,50.12 88.59,49.9 88.59,49.67 88.59,49.45 88.59,49.23 88.59,49.01 88.59,48.78 88.59,48.56 88.59,48.34 88.59,48.11 88.59,47.89 88.59,47.67 88.59,47.44 88.59,47.22 88.59,47 88.59,46.77 88.59,46.55 88.59,46.33 88.59,46.1 88.59,45.88 88.59,45.66 88.59,45.44 88.59,45.21 88.59,44.99 88.59,44.77 88.59,44.54 88.59,44.32 88.59,44.1 88.59,43.87 88.59,43.65 88.59,43.43 88.59,43.2 88.59,42.98 88.59,42.76 88.59,42.53 88.59,42.31 88.59,42.09 88.59,41.87 88.59,41.64 88.59,41.42 88.59,41.2 88.59,40.97 88.59,40.75 88.59,40.53 88.59,40.3 88.59,40.08 88.59,39.86 88.59,39.63 88.59,39.41 88.59,39.19 88.59,38.96 88.59,38.74 88.59,38.52 88.59,38.3 88.59,38.07 88.59,37.85 88.59,37.63 88.59,37.4 88.59,37.18 88.59,36.96 88.59,36.73 88.59,36.51 88.59,36.29 88.59,36.06 88.59,35.84 88.59,35.62 88.59,35.39 88.59,35.17 88.59,34.95 88.59,34.73 88.59,34.5 88.59,34.28 88.59,34.06 88.59,33.83 88.59,33.61 88.59,33.39 88.59,33.16 88.59,32.94 88.59,32.72 88.59,32.49 88.59,32.27 88.59,32.05 88.59,31.82 88.59,31.6 88.59,31.38 88.59,31.16 88.59,30.93 88.59,30.71 88.59,30.49 88.59,30.26 88.59,30.04 88.59,29.82 88.59,29.59 88.59,29.37 88.59,29.15 88.59,28.92 88.59,28.7 88.59,28.48 88.59,28.25 88.59,28.03 88.59,27.81 88.59,27.59 88.59,27.36 88.59,27.14 88.59,26.92 88.59,26.69 88.59,26.47 88.59,26.25 88.59,26.02 88.59,25.8 88.59,25.58 88.59,25.35 88.59,25.13 88.59,24.91 88.59,24.68 88.59,24.46 88.59,24.24 88.59,24.02 88.59,23.79 88.59,23.57 88.59,23.35 88.59,23.12 88.59,22.9 88.59,22.68 88.59,22.45 88.59,22.23 88.59,22.01 88.59,21.78 88.59,21.56 88.59,21.34 88.59,21.11 88.59,20.89 88.59,20.67 88.59,20.45 88.59,20.22 88.59,20 88.59,19.78 88.59,19.55 88.59,19.33 88.59,19.11 88.59,18.88 88.59,18.66 90.23,18.66 90.24,18.88 90.24,19.11 90.24,19.33 90.25,19.55 90.25,19.78 90.25,20 90.25,20.22 90.25,20.45 90.25,20.67 90.25,20.89 90.25,21.11 90.25,21.34 90.25,21.56 90.25,21.78 90.25,22.01 90.25,22.23 90.24,22.45 90.24,22.68 90.24,22.9 90.24,23.12 90.24,23.35 90.23,23.57 90.23,23.79 90.23,24.02 90.23,24.24 90.23,24.46 90.22,24.68 90.22,24.91 90.22,25.13 90.22,25.35 90.22,25.58 90.22,25.8 90.22,26.02 90.22,26.25 90.22,26.47 90.23,26.69 90.23,26.92 90.23,27.14 90.24,27.36 90.24,27.59 90.25,27.81 90.25,28.03 90.26,28.25 90.27,28.48 90.28,28.7 90.29,28.92 90.3,29.15 90.31,29.37 90.33,29.59 90.34,29.82 90.36,30.04 90.37,30.26 90.39,30.49 90.41,30.71 90.43,30.93 90.45,31.16 90.48,31.38 90.5,31.6 90.53,31.82 90.56,32.05 90.59,32.27 90.62,32.49 90.65,32.72 90.68,32.94 90.72,33.16 90.76,33.39 90.8,33.61 90.84,33.83 90.88,34.06 90.92,34.28 90.97,34.5 91.01,34.73 91.06,34.95 91.11,35.17 91.16,35.39 91.22,35.62 91.27,35.84 91.33,36.06 91.39,36.29 91.45,36.51 91.51,36.73 91.57,36.96 91.64,37.18 91.7,37.4 91.77,37.63 91.84,37.85 91.91,38.07 91.98,38.3 92.06,38.52 92.13,38.74 92.21,38.96 92.29,39.19 92.37,39.41 92.45,39.63 92.53,39.86 92.62,40.08 92.7,40.3 92.79,40.53 92.88,40.75 92.97,40.97 93.06,41.2 93.15,41.42 93.24,41.64 93.34,41.87 93.43,42.09 93.53,42.31 93.62,42.53 93.72,42.76 93.82,42.98 93.92,43.2 94.02,43.43 94.12,43.65 94.23,43.87 94.33,44.1 94.44,44.32 94.54,44.54 94.65,44.77 94.75,44.99 94.86,45.21 94.97,45.44 95.07,45.66 95.18,45.88 95.29,46.1 95.4,46.33 95.51,46.55 95.62,46.77 95.73,47 95.84,47.22 95.95,47.44 96.07,47.67 96.18,47.89 96.29,48.11 96.4,48.34 96.51,48.56 96.62,48.78 96.74,49.01 96.85,49.23 96.96,49.45 97.07,49.67 97.18,49.9 97.29,50.12 97.4,50.34 97.51,50.57 97.63,50.79 97.74,51.01 97.84,51.24 97.95,51.46 98.06,51.68 98.17,51.91 98.28,52.13 98.39,52.35 98.49,52.58 98.6,52.8 98.7,53.02 98.81,53.24 98.91,53.47 99.02,53.69 99.12,53.91 99.22,54.14 99.32,54.36 99.42,54.58 99.52,54.81 99.62,55.03 99.72,55.25 99.81,55.48 99.91,55.7 100,55.92 100.09,56.15 100.19,56.37 100.28,56.59 100.37,56.81 100.46,57.04 100.55,57.26 100.63,57.48 100.72,57.71 100.8,57.93 100.89,58.15 100.97,58.38 101.05,58.6 101.13,58.82 101.21,59.05 101.29,59.27 101.37,59.49 101.44,59.72 101.52,59.94 101.59,60.16 101.66,60.38 101.74,60.61 101.81,60.83 101.88,61.05 101.95,61.28 102.01,61.5 102.08,61.72 102.15,61.95 102.21,62.17 102.28,62.39 102.34,62.62 102.4,62.84 102.46,63.06 102.53,63.29 102.59,63.51 102.65,63.73 102.71,63.95 102.77,64.18 102.82,64.4 102.88,64.62 102.94,64.85 103,65.07 103.05,65.29 103.11,65.52 103.17,65.74 103.23,65.96 103.28,66.19 103.34,66.41 103.39,66.63 103.45,66.86 103.51,67.08 103.56,67.3 103.62,67.52 103.68,67.75 103.74,67.97 103.79,68.19 103.85,68.42 103.91,68.64 103.97,68.86 104.03,69.09 104.09,69.31 104.15,69.53 104.21,69.76 104.28,69.98 104.34,70.2 104.4,70.43 104.47,70.65 104.53,70.87 104.6,71.09 104.67,71.32 104.73,71.54 104.8,71.76 104.87,71.99 104.94,72.21 105.01,72.43 105.09,72.66 105.16,72.88 105.23,73.1 105.31,73.33 105.38,73.55 105.46,73.77 105.54,74 105.62,74.22 105.7,74.44 105.78,74.66 105.86,74.89 105.94,75.11 106.03,75.33 106.11,75.56 106.19,75.78 106.28,76 106.37,76.23 106.45,76.45 106.54,76.67 106.63,76.9 106.72,77.12 106.81,77.34 106.9,77.57 106.99,77.79 107.08,78.01 107.17,78.23 107.26,78.46 107.36,78.68 107.45,78.9 107.54,79.13 107.63,79.35 107.73,79.57 107.82,79.8 107.92,80.02 108.01,80.24 108.11,80.47 108.2,80.69 108.29,80.91 108.39,81.14 108.48,81.36 108.58,81.58 108.67,81.8 108.77,82.03 108.87,82.25 108.96,82.47 109.06,82.7 109.15,82.92 109.25,83.14 109.34,83.37 109.44,83.59 109.53,83.81 109.63,84.04 109.72,84.26 109.82,84.48 109.92,84.71 110.01,84.93 110.11,85.15 110.2,85.37 110.3,85.6 110.4,85.82 110.49,86.04 110.59,86.27 110.69,86.49 110.79,86.71 110.89,86.94 110.99,87.16 111.09,87.38 111.19,87.61 111.29,87.83 111.39,88.05 111.49,88.28 111.59,88.5 111.7,88.72 111.8,88.94 111.91,89.17 112.02,89.39 112.12,89.61 112.23,89.84 112.34,90.06 112.46,90.28 112.57,90.51 112.68,90.73 112.8,90.95 112.92,91.18 113.04,91.4 113.16,91.62 113.28,91.85 113.4,92.07 113.53,92.29 113.65,92.51 113.78,92.74 113.91,92.96 114.05,93.18 114.18,93.41 114.32,93.63 114.45,93.85 114.6,94.08 114.74,94.3 114.88,94.52 115.03,94.75 115.17,94.97 115.32,95.19 115.48,95.42 115.63,95.64 115.79,95.86 115.94,96.08 116.1,96.31 116.26,96.53 116.43,96.75 116.59,96.98 116.76,97.2 116.93,97.42 117.1,97.65 117.27,97.87 117.44,98.09 117.62,98.32 117.79,98.54 117.97,98.76 118.15,98.99 118.32,99.21 118.5,99.43 118.69,99.65 118.87,99.88 119.05,100.1 119.23,100.32 119.42,100.55 119.6,100.77 119.79,100.99 119.97,101.22 120.15,101.44 120.34,101.66 120.52,101.89 120.71,102.11 120.89,102.33 121.07,102.56 121.25,102.78 121.43,103 121.61,103.22 121.79,103.45 121.97,103.67 122.14,103.89 122.32,104.12 122.49,104.34 122.66,104.56 122.83,104.79 122.99,105.01 123.16,105.23 123.32,105.46 123.47,105.68 123.63,105.9 123.78,106.13 123.93,106.35 124.07,106.57 124.22,106.79 124.35,107.02 124.49,107.24 124.62,107.46 124.74,107.69 124.87,107.91 124.98,108.13 125.1,108.36 125.2,108.58 125.31,108.8 125.41,109.03 125.5,109.25 125.59,109.47 125.67,109.7 125.75,109.92 125.82,110.14 125.89,110.36 125.95,110.59 126.01,110.81 126.06,111.03 126.1,111.26 126.14,111.48 126.16,111.7 126.19,111.93 126.21,112.15 126.22,112.37 126.23,112.6 126.22,112.82 126.21,113.04 126.2,113.27 126.18,113.49 126.15,113.71 126.11,113.93 126.07,114.16 126.02,114.38 125.97,114.6 125.9,114.83 125.83,115.05 125.76,115.27 125.67,115.5 125.58,115.72 125.48,115.94 125.37,116.17 125.26,116.39 125.14,116.61 125.01,116.84 124.88,117.06 124.74,117.28 124.59,117.5 124.43,117.73 124.27,117.95 124.1,118.17 123.93,118.4 123.74,118.62 123.56,118.84 123.36,119.07 123.16,119.29 122.95,119.51 122.73,119.74 122.51,119.96 122.28,120.18 122.05,120.41 121.81,120.63 121.56,120.85 121.31,121.07 121.06,121.3 120.79,121.52 120.53,121.74 120.25,121.97 119.97,122.19 119.69,122.41 119.4,122.64 119.11,122.86 118.81,123.08 118.51,123.31 118.2,123.53 117.89,123.75 117.57,123.98 117.25,124.2 116.93,124.42 116.6,124.64 116.28,124.87 115.94,125.09 115.61,125.31 115.27,125.54 114.93,125.76 114.58,125.98 114.23,126.21 113.89,126.43 113.54,126.65 113.18,126.88 112.83,127.1 112.47,127.32 112.12,127.55 111.76,127.77 111.4,127.99 111.04,128.21 110.68,128.44 110.32,128.66 109.96,128.88 109.6,129.11 109.24,129.33 108.88,129.55 108.52,129.78 108.16,130 107.8,130.22 107.44,130.45 107.09,130.67 106.73,130.89 106.38,131.11 106.03,131.34 105.68,131.56 105.33,131.78 104.98,132.01 104.64,132.23 104.3,132.45 103.96,132.68 88.59,132.68 88.59,132.45 88.59,132.23 88.59,132.01 88.59,131.78 88.59,131.56 88.59,131.34 88.59,131.11 88.59,130.89 88.59,130.67 88.59,130.45 88.59,130.22 88.59,130 88.59,129.78 88.59,129.55 "
       style="fill:#fb8483;stroke:#000000;stroke-width:1.07;stroke-linecap:butt;stroke-linejoin:round;stroke-miterlimit:10"
       id="polygon653"
       transform="matrix(0.35277777,0,0,0.35277777,-0.85509365,0.07364034)"
       clip-path="url(#clipPath1949)" />
    <polygon
       points="163.86,129.75 163.86,129.55 163.86,129.36 163.86,129.16 163.86,128.97 163.86,128.77 163.86,128.58 163.86,128.38 163.86,128.19 163.86,127.99 163.86,127.8 163.86,127.6 163.86,127.41 163.86,127.21 163.86,127.02 163.86,126.82 163.86,126.62 163.86,126.43 163.86,126.23 163.86,126.04 163.86,125.84 163.86,125.65 163.86,125.45 163.86,125.26 163.86,125.06 163.86,124.87 163.86,124.67 163.86,124.48 163.86,124.28 163.86,124.09 163.86,123.89 163.86,123.7 163.86,123.5 163.86,123.31 163.86,123.11 163.86,122.92 163.86,122.72 163.86,122.52 163.86,122.33 163.86,122.13 163.86,121.94 163.86,121.74 163.86,121.55 163.86,121.35 163.86,121.16 163.86,120.96 163.86,120.77 163.86,120.57 163.86,120.38 163.86,120.18 163.86,119.99 163.86,119.79 163.86,119.6 163.86,119.4 163.86,119.21 163.86,119.01 163.86,118.82 163.86,118.62 163.86,118.42 163.86,118.23 163.86,118.03 163.86,117.84 163.86,117.64 163.86,117.45 163.86,117.25 163.86,117.06 163.86,116.86 163.86,116.67 163.86,116.47 163.86,116.28 163.86,116.08 163.86,115.89 163.86,115.69 163.86,115.5 163.86,115.3 163.86,115.11 163.86,114.91 163.86,114.72 163.86,114.52 163.86,114.32 163.86,114.13 163.86,113.93 163.86,113.74 163.86,113.54 163.86,113.35 163.86,113.15 163.86,112.96 163.86,112.76 163.86,112.57 163.86,112.37 163.86,112.18 163.86,111.98 163.86,111.79 163.86,111.59 163.86,111.4 163.86,111.2 163.86,111.01 163.86,110.81 163.86,110.62 163.86,110.42 163.86,110.23 163.86,110.03 163.86,109.83 163.86,109.64 163.86,109.44 163.86,109.25 163.86,109.05 163.86,108.86 163.86,108.66 163.86,108.47 163.86,108.27 163.86,108.08 163.86,107.88 163.86,107.69 163.86,107.49 163.86,107.3 163.86,107.1 163.86,106.91 163.86,106.71 163.86,106.52 163.86,106.32 163.86,106.13 163.86,105.93 163.86,105.73 163.86,105.54 163.86,105.34 163.86,105.15 163.86,104.95 163.86,104.76 163.86,104.56 163.86,104.37 163.86,104.17 163.86,103.98 163.86,103.78 163.86,103.59 163.86,103.39 163.86,103.2 163.86,103 163.86,102.81 163.86,102.61 163.86,102.42 163.86,102.22 163.86,102.03 163.86,101.83 163.86,101.63 163.86,101.44 163.86,101.24 163.86,101.05 163.86,100.85 163.86,100.66 163.86,100.46 163.86,100.27 163.86,100.07 163.86,99.88 163.86,99.68 163.86,99.49 163.86,99.29 163.86,99.1 163.86,98.9 163.86,98.71 163.86,98.51 163.86,98.32 163.86,98.12 163.86,97.93 163.86,97.73 163.86,97.53 163.86,97.34 163.86,97.14 163.86,96.95 163.86,96.75 163.86,96.56 163.86,96.36 163.86,96.17 163.86,95.97 163.86,95.78 163.86,95.58 163.86,95.39 163.86,95.19 163.86,95 163.86,94.8 163.86,94.61 163.86,94.41 163.86,94.22 163.86,94.02 163.86,93.83 163.86,93.63 163.86,93.43 163.86,93.24 163.86,93.04 163.86,92.85 163.86,92.65 163.86,92.46 163.86,92.26 163.86,92.07 163.86,91.87 163.86,91.68 163.86,91.48 163.86,91.29 163.86,91.09 163.86,90.9 163.86,90.7 163.86,90.51 163.86,90.31 163.86,90.12 163.86,89.92 163.86,89.73 163.86,89.53 163.86,89.34 163.86,89.14 163.86,88.94 163.86,88.75 163.86,88.55 163.86,88.36 163.86,88.16 163.86,87.97 163.86,87.77 163.86,87.58 163.86,87.38 163.86,87.19 163.86,86.99 163.86,86.8 163.86,86.6 163.86,86.41 163.86,86.21 163.86,86.02 163.86,85.82 163.86,85.63 163.86,85.43 163.86,85.24 163.86,85.04 163.86,84.84 163.86,84.65 163.86,84.45 163.86,84.26 163.86,84.06 163.86,83.87 163.86,83.67 163.86,83.48 163.86,83.28 163.86,83.09 163.86,82.89 163.86,82.7 163.86,82.5 163.86,82.31 163.86,82.11 163.86,81.92 163.86,81.72 163.86,81.53 163.86,81.33 163.86,81.14 163.86,80.94 163.86,80.74 163.86,80.55 163.86,80.35 163.86,80.16 163.86,79.96 163.86,79.77 163.86,79.57 163.86,79.38 163.86,79.18 163.86,78.99 163.86,78.79 163.86,78.6 163.86,78.4 163.86,78.21 163.86,78.01 163.86,77.82 163.86,77.62 163.86,77.43 163.86,77.23 163.86,77.04 163.86,76.84 163.86,76.64 163.86,76.45 163.86,76.25 163.86,76.06 163.86,75.86 163.86,75.67 163.86,75.47 163.86,75.28 163.86,75.08 163.86,74.89 163.86,74.69 163.86,74.5 163.86,74.3 163.86,74.11 163.86,73.91 163.86,73.72 163.86,73.52 163.86,73.33 163.86,73.13 163.86,72.94 163.86,72.74 163.86,72.54 163.86,72.35 163.86,72.15 163.86,71.96 163.86,71.76 163.86,71.57 163.86,71.37 163.86,71.18 163.86,70.98 163.86,70.79 163.86,70.59 163.86,70.4 163.86,70.2 163.86,70.01 163.86,69.81 163.86,69.62 163.86,69.42 163.86,69.23 163.86,69.03 163.86,68.84 163.86,68.64 163.86,68.45 163.86,68.25 163.86,68.05 163.86,67.86 163.86,67.66 163.86,67.47 163.86,67.27 163.86,67.08 163.86,66.88 163.86,66.69 163.86,66.49 163.86,66.3 163.86,66.1 163.86,65.91 163.86,65.71 163.86,65.52 163.86,65.32 163.86,65.13 163.86,64.93 163.86,64.74 163.86,64.54 163.86,64.35 163.86,64.15 163.86,63.95 163.86,63.76 163.86,63.56 163.86,63.37 163.86,63.17 163.86,62.98 163.86,62.78 163.86,62.59 163.86,62.39 163.86,62.2 163.86,62 163.86,61.81 163.86,61.61 163.86,61.42 163.86,61.22 163.86,61.03 163.86,60.83 163.86,60.64 163.86,60.44 163.86,60.25 163.86,60.05 163.86,59.85 163.86,59.66 163.86,59.46 163.86,59.27 163.86,59.07 163.86,58.88 163.86,58.68 163.86,58.49 163.86,58.29 163.86,58.1 163.86,57.9 163.86,57.71 163.86,57.51 163.86,57.32 163.86,57.12 163.86,56.93 163.86,56.73 163.86,56.54 163.86,56.34 163.86,56.15 163.86,55.95 163.86,55.75 163.86,55.56 163.86,55.36 163.86,55.17 163.86,54.97 163.86,54.78 163.86,54.58 163.86,54.39 163.86,54.19 163.86,54 163.86,53.8 163.86,53.61 163.86,53.41 163.86,53.22 163.86,53.02 163.86,52.83 163.86,52.63 163.86,52.44 163.86,52.24 163.86,52.05 163.86,51.85 163.86,51.65 163.86,51.46 163.86,51.26 163.86,51.07 163.86,50.87 163.86,50.68 163.86,50.48 163.86,50.29 163.86,50.09 163.86,49.9 163.86,49.7 163.86,49.51 163.86,49.31 163.86,49.12 163.86,48.92 163.86,48.73 163.86,48.53 163.86,48.34 163.86,48.14 163.86,47.95 163.86,47.75 163.86,47.56 163.86,47.36 163.86,47.16 163.86,46.97 163.86,46.77 163.86,46.58 163.86,46.38 163.86,46.19 163.86,45.99 163.86,45.8 163.86,45.6 163.86,45.41 163.86,45.21 163.86,45.02 163.86,44.82 163.86,44.63 163.86,44.43 163.86,44.24 163.86,44.04 163.86,43.85 163.86,43.65 163.86,43.46 163.86,43.26 163.86,43.06 163.86,42.87 163.86,42.67 163.86,42.48 163.86,42.28 163.86,42.09 163.86,41.89 163.86,41.7 163.86,41.5 163.86,41.31 163.86,41.11 163.86,40.92 163.86,40.72 163.86,40.53 163.86,40.33 163.86,40.14 163.86,39.94 163.86,39.75 163.86,39.55 163.86,39.36 163.86,39.16 163.86,38.96 163.86,38.77 163.86,38.57 163.86,38.38 163.86,38.18 163.86,37.99 163.86,37.79 163.86,37.6 163.86,37.4 163.86,37.21 163.86,37.01 163.86,36.82 163.86,36.62 163.86,36.43 163.86,36.23 163.86,36.04 163.86,35.84 163.86,35.65 163.86,35.45 163.86,35.26 163.86,35.06 163.86,34.86 163.86,34.67 163.86,34.47 163.86,34.28 163.86,34.08 163.86,33.89 163.86,33.69 163.86,33.5 163.86,33.3 163.86,33.11 163.86,32.91 167.31,32.91 167.34,33.11 167.36,33.3 167.38,33.5 167.4,33.69 167.42,33.89 167.44,34.08 167.46,34.28 167.48,34.47 167.5,34.67 167.52,34.86 167.54,35.06 167.55,35.26 167.57,35.45 167.58,35.65 167.6,35.84 167.61,36.04 167.63,36.23 167.64,36.43 167.65,36.62 167.67,36.82 167.68,37.01 167.69,37.21 167.7,37.4 167.71,37.6 167.72,37.79 167.73,37.99 167.74,38.18 167.75,38.38 167.75,38.57 167.76,38.77 167.77,38.96 167.78,39.16 167.78,39.36 167.79,39.55 167.8,39.75 167.8,39.94 167.81,40.14 167.81,40.33 167.82,40.53 167.83,40.72 167.83,40.92 167.84,41.11 167.84,41.31 167.85,41.5 167.85,41.7 167.86,41.89 167.87,42.09 167.87,42.28 167.88,42.48 167.88,42.67 167.89,42.87 167.9,43.06 167.9,43.26 167.91,43.46 167.92,43.65 167.93,43.85 167.94,44.04 167.95,44.24 167.96,44.43 167.97,44.63 167.98,44.82 167.99,45.02 168,45.21 168.01,45.41 168.03,45.6 168.04,45.8 168.05,45.99 168.07,46.19 168.09,46.38 168.1,46.58 168.12,46.77 168.14,46.97 168.16,47.16 168.18,47.36 168.2,47.56 168.23,47.75 168.25,47.95 168.28,48.14 168.3,48.34 168.33,48.53 168.36,48.73 168.38,48.92 168.42,49.12 168.45,49.31 168.48,49.51 168.51,49.7 168.55,49.9 168.58,50.09 168.62,50.29 168.66,50.48 168.7,50.68 168.74,50.87 168.78,51.07 168.82,51.26 168.87,51.46 168.91,51.65 168.96,51.85 169.01,52.05 169.06,52.24 169.11,52.44 169.16,52.63 169.21,52.83 169.27,53.02 169.32,53.22 169.38,53.41 169.44,53.61 169.5,53.8 169.56,54 169.62,54.19 169.68,54.39 169.75,54.58 169.81,54.78 169.88,54.97 169.95,55.17 170.01,55.36 170.08,55.56 170.15,55.75 170.23,55.95 170.3,56.15 170.37,56.34 170.45,56.54 170.52,56.73 170.6,56.93 170.68,57.12 170.76,57.32 170.84,57.51 170.92,57.71 171,57.9 171.08,58.1 171.16,58.29 171.25,58.49 171.33,58.68 171.42,58.88 171.5,59.07 171.59,59.27 171.68,59.46 171.76,59.66 171.85,59.85 171.94,60.05 172.03,60.25 172.12,60.44 172.21,60.64 172.3,60.83 172.39,61.03 172.49,61.22 172.58,61.42 172.67,61.61 172.77,61.81 172.86,62 172.95,62.2 173.05,62.39 173.14,62.59 173.24,62.78 173.33,62.98 173.43,63.17 173.52,63.37 173.62,63.56 173.71,63.76 173.81,63.95 173.9,64.15 174,64.35 174.1,64.54 174.19,64.74 174.29,64.93 174.38,65.13 174.48,65.32 174.57,65.52 174.67,65.71 174.76,65.91 174.86,66.1 174.95,66.3 175.04,66.49 175.14,66.69 175.23,66.88 175.32,67.08 175.41,67.27 175.51,67.47 175.6,67.66 175.69,67.86 175.78,68.05 175.87,68.25 175.96,68.45 176.05,68.64 176.13,68.84 176.22,69.03 176.31,69.23 176.39,69.42 176.48,69.62 176.56,69.81 176.65,70.01 176.73,70.2 176.81,70.4 176.89,70.59 176.97,70.79 177.05,70.98 177.13,71.18 177.21,71.37 177.29,71.57 177.37,71.76 177.44,71.96 177.52,72.15 177.59,72.35 177.66,72.54 177.73,72.74 177.8,72.94 177.87,73.13 177.94,73.33 178.01,73.52 178.08,73.72 178.14,73.91 178.2,74.11 178.27,74.3 178.33,74.5 178.39,74.69 178.45,74.89 178.51,75.08 178.57,75.28 178.62,75.47 178.68,75.67 178.74,75.86 178.79,76.06 178.84,76.25 178.89,76.45 178.94,76.64 178.99,76.84 179.04,77.04 179.09,77.23 179.13,77.43 179.18,77.62 179.22,77.82 179.27,78.01 179.31,78.21 179.35,78.4 179.39,78.6 179.43,78.79 179.47,78.99 179.51,79.18 179.54,79.38 179.58,79.57 179.62,79.77 179.65,79.96 179.68,80.16 179.72,80.35 179.75,80.55 179.78,80.74 179.81,80.94 179.85,81.14 179.88,81.33 179.91,81.53 179.93,81.72 179.96,81.92 179.99,82.11 180.02,82.31 180.05,82.5 180.08,82.7 180.1,82.89 180.13,83.09 180.16,83.28 180.18,83.48 180.21,83.67 180.24,83.87 180.27,84.06 180.29,84.26 180.32,84.45 180.35,84.65 180.38,84.84 180.4,85.04 180.43,85.24 180.46,85.43 180.49,85.63 180.52,85.82 180.55,86.02 180.58,86.21 180.61,86.41 180.64,86.6 180.68,86.8 180.71,86.99 180.74,87.19 180.78,87.38 180.82,87.58 180.85,87.77 180.89,87.97 180.93,88.16 180.97,88.36 181.01,88.55 181.06,88.75 181.1,88.94 181.14,89.14 181.19,89.34 181.24,89.53 181.29,89.73 181.34,89.92 181.39,90.12 181.45,90.31 181.5,90.51 181.56,90.7 181.62,90.9 181.68,91.09 181.74,91.29 181.8,91.48 181.87,91.68 181.94,91.87 182.01,92.07 182.08,92.26 182.15,92.46 182.23,92.65 182.3,92.85 182.38,93.04 182.47,93.24 182.55,93.43 182.63,93.63 182.72,93.83 182.81,94.02 182.9,94.22 183,94.41 183.1,94.61 183.19,94.8 183.3,95 183.4,95.19 183.5,95.39 183.61,95.58 183.72,95.78 183.83,95.97 183.95,96.17 184.07,96.36 184.19,96.56 184.31,96.75 184.43,96.95 184.56,97.14 184.69,97.34 184.82,97.53 184.95,97.73 185.09,97.93 185.23,98.12 185.37,98.32 185.51,98.51 185.65,98.71 185.8,98.9 185.95,99.1 186.1,99.29 186.26,99.49 186.41,99.68 186.57,99.88 186.73,100.07 186.89,100.27 187.06,100.46 187.23,100.66 187.4,100.85 187.57,101.05 187.74,101.24 187.91,101.44 188.09,101.63 188.27,101.83 188.45,102.03 188.63,102.22 188.82,102.42 189,102.61 189.19,102.81 189.38,103 189.57,103.2 189.76,103.39 189.96,103.59 190.15,103.78 190.35,103.98 190.54,104.17 190.74,104.37 190.94,104.56 191.14,104.76 191.35,104.95 191.55,105.15 191.75,105.34 191.96,105.54 192.16,105.73 192.37,105.93 192.57,106.13 192.78,106.32 192.98,106.52 193.19,106.71 193.4,106.91 193.6,107.1 193.81,107.3 194.01,107.49 194.22,107.69 194.42,107.88 194.63,108.08 194.83,108.27 195.04,108.47 195.24,108.66 195.44,108.86 195.64,109.05 195.84,109.25 196.03,109.44 196.23,109.64 196.43,109.83 196.62,110.03 196.81,110.23 197,110.42 197.18,110.62 197.37,110.81 197.55,111.01 197.73,111.2 197.91,111.4 198.08,111.59 198.25,111.79 198.42,111.98 198.59,112.18 198.75,112.37 198.91,112.57 199.06,112.76 199.21,112.96 199.36,113.15 199.5,113.35 199.64,113.54 199.78,113.74 199.91,113.93 200.04,114.13 200.16,114.32 200.28,114.52 200.39,114.72 200.5,114.91 200.6,115.11 200.7,115.3 200.79,115.5 200.88,115.69 200.96,115.89 201.04,116.08 201.11,116.28 201.17,116.47 201.23,116.67 201.29,116.86 201.34,117.06 201.38,117.25 201.41,117.45 201.44,117.64 201.47,117.84 201.48,118.03 201.49,118.23 201.5,118.42 201.49,118.62 201.49,118.82 201.47,119.01 201.45,119.21 201.42,119.4 201.39,119.6 201.34,119.79 201.3,119.99 201.24,120.18 201.18,120.38 201.11,120.57 201.03,120.77 200.95,120.96 200.86,121.16 200.77,121.35 200.66,121.55 200.56,121.74 200.44,121.94 200.32,122.13 200.19,122.33 200.05,122.52 199.91,122.72 199.76,122.92 199.6,123.11 199.44,123.31 199.27,123.5 199.1,123.7 198.92,123.89 198.73,124.09 198.54,124.28 198.34,124.48 198.14,124.67 197.93,124.87 197.71,125.06 197.49,125.26 197.26,125.45 197.03,125.65 196.79,125.84 196.55,126.04 196.3,126.23 196.05,126.43 195.79,126.62 195.53,126.82 195.26,127.02 194.99,127.21 194.72,127.41 194.44,127.6 194.15,127.8 193.87,127.99 193.58,128.19 193.28,128.38 192.99,128.58 192.68,128.77 192.38,128.97 192.07,129.16 191.76,129.36 191.45,129.55 191.14,129.75 190.82,129.94 190.5,130.14 190.18,130.33 189.86,130.53 189.53,130.72 189.2,130.92 188.88,131.11 188.55,131.31 188.22,131.51 187.88,131.7 187.55,131.9 187.22,132.09 186.89,132.29 186.55,132.48 186.22,132.68 163.86,132.68 163.86,132.48 163.86,132.29 163.86,132.09 163.86,131.9 163.86,131.7 163.86,131.51 163.86,131.31 163.86,131.11 163.86,130.92 163.86,130.72 163.86,130.53 163.86,130.33 163.86,130.14 163.86,129.94 "
       style="fill:#60bded;stroke:#000000;stroke-width:1.07;stroke-linecap:butt;stroke-linejoin:round;stroke-miterlimit:10"
       id="polygon655"
       transform="matrix(0.35277777,0,0,0.35277777,-0.85509365,0.07364034)"
       clip-path="url(#clipPath1945)" />
    <circle
       cx="27.738445"
       cy="24.253029"
       r="0.65969443"
       style="fill:#fb8483;fill-opacity:0.6;stroke:#fb8483;stroke-width:0;stroke-linecap:round;stroke-linejoin:round;stroke-miterlimit:10;stroke-opacity:0.6"
       id="circle657" />
    <circle
       cx="28.662722"
       cy="16.71064"
       r="0.65969443"
       style="fill:#fb8483;fill-opacity:0.6;stroke:#fb8483;stroke-width:0;stroke-linecap:round;stroke-linejoin:round;stroke-miterlimit:10;stroke-opacity:0.6"
       id="circle659" />
    <circle
       cx="53.507423"
       cy="44.364891"
       r="0.65969443"
       style="fill:#60bded;fill-opacity:0.6;stroke:#60bded;stroke-width:0;stroke-linecap:round;stroke-linejoin:round;stroke-miterlimit:10;stroke-opacity:0.6"
       id="circle661" />
    <circle
       cx="28.020666"
       cy="6.6564736"
       r="0.65969443"
       style="fill:#fb8483;fill-opacity:0.6;stroke:#fb8483;stroke-width:0;stroke-linecap:round;stroke-linejoin:round;stroke-miterlimit:10;stroke-opacity:0.6"
       id="circle663" />
    <circle
       cx="55.606449"
       cy="41.849583"
       r="0.65969443"
       style="fill:#60bded;fill-opacity:0.6;stroke:#60bded;stroke-width:0;stroke-linecap:round;stroke-linejoin:round;stroke-miterlimit:10;stroke-opacity:0.6"
       id="circle665" />
    <circle
       cx="54.907951"
       cy="39.337807"
       r="0.65969443"
       style="fill:#60bded;fill-opacity:0.6;stroke:#60bded;stroke-width:0;stroke-linecap:round;stroke-linejoin:round;stroke-miterlimit:10;stroke-opacity:0.6"
       id="circle667" />
    <circle
       cx="53.927227"
       cy="34.310722"
       r="0.65969443"
       style="fill:#60bded;fill-opacity:0.6;stroke:#60bded;stroke-width:0;stroke-linecap:round;stroke-linejoin:round;stroke-miterlimit:10;stroke-opacity:0.6"
       id="circle669" />
    <circle
       cx="53.316921"
       cy="29.280111"
       r="0.65969443"
       style="fill:#60bded;fill-opacity:0.6;stroke:#60bded;stroke-width:0;stroke-linecap:round;stroke-linejoin:round;stroke-miterlimit:10;stroke-opacity:0.6"
       id="circle671" />
    <circle
       cx="54.184753"
       cy="41.849583"
       r="0.65969443"
       style="fill:#60bded;fill-opacity:0.6;stroke:#60bded;stroke-width:0;stroke-linecap:round;stroke-linejoin:round;stroke-miterlimit:10;stroke-opacity:0.6"
       id="circle673" />
    <circle
       cx="28.846167"
       cy="44.364891"
       r="0.65969443"
       style="fill:#fb8483;fill-opacity:0.6;stroke:#fb8483;stroke-width:0;stroke-linecap:round;stroke-linejoin:round;stroke-miterlimit:10;stroke-opacity:0.6"
       id="circle675" />
    <circle
       cx="28.338167"
       cy="21.741251"
       r="0.65969443"
       style="fill:#fb8483;fill-opacity:0.6;stroke:#fb8483;stroke-width:0;stroke-linecap:round;stroke-linejoin:round;stroke-miterlimit:10;stroke-opacity:0.6"
       id="circle677" />
    <circle
       cx="28.824999"
       cy="29.280111"
       r="0.65969443"
       style="fill:#fb8483;fill-opacity:0.6;stroke:#fb8483;stroke-width:0;stroke-linecap:round;stroke-linejoin:round;stroke-miterlimit:10;stroke-opacity:0.6"
       id="circle679" />
    <circle
       cx="26.457861"
       cy="29.280111"
       r="0.65969443"
       style="fill:#fb8483;fill-opacity:0.6;stroke:#fb8483;stroke-width:0;stroke-linecap:round;stroke-linejoin:round;stroke-miterlimit:10;stroke-opacity:0.6"
       id="circle681" />
    <circle
       cx="28.997862"
       cy="16.71064"
       r="0.65969443"
       style="fill:#fb8483;fill-opacity:0.6;stroke:#fb8483;stroke-width:0;stroke-linecap:round;stroke-linejoin:round;stroke-miterlimit:10;stroke-opacity:0.6"
       id="circle683" />
    <circle
       cx="28.465166"
       cy="29.280111"
       r="0.65969443"
       style="fill:#fb8483;fill-opacity:0.6;stroke:#fb8483;stroke-width:0;stroke-linecap:round;stroke-linejoin:round;stroke-miterlimit:10;stroke-opacity:0.6"
       id="circle685" />
    <circle
       cx="27.244556"
       cy="34.310722"
       r="0.65969443"
       style="fill:#fb8483;fill-opacity:0.6;stroke:#fb8483;stroke-width:0;stroke-linecap:round;stroke-linejoin:round;stroke-miterlimit:10;stroke-opacity:0.6"
       id="circle687" />
    <circle
       cx="54.163589"
       cy="11.683557"
       r="0.65969443"
       style="fill:#60bded;fill-opacity:0.6;stroke:#60bded;stroke-width:0;stroke-linecap:round;stroke-linejoin:round;stroke-miterlimit:10;stroke-opacity:0.6"
       id="circle689" />
    <circle
       cx="54.117725"
       cy="21.741251"
       r="0.65969443"
       style="fill:#60bded;fill-opacity:0.6;stroke:#60bded;stroke-width:0;stroke-linecap:round;stroke-linejoin:round;stroke-miterlimit:10;stroke-opacity:0.6"
       id="circle691" />
    <circle
       cx="53.673229"
       cy="36.822498"
       r="0.65969443"
       style="fill:#60bded;fill-opacity:0.6;stroke:#60bded;stroke-width:0;stroke-linecap:round;stroke-linejoin:round;stroke-miterlimit:10;stroke-opacity:0.6"
       id="circle693" />
    <circle
       cx="26.965862"
       cy="29.280111"
       r="0.65969443"
       style="fill:#fb8483;fill-opacity:0.6;stroke:#fb8483;stroke-width:0;stroke-linecap:round;stroke-linejoin:round;stroke-miterlimit:10;stroke-opacity:0.6"
       id="circle695" />
    <circle
       cx="54.043648"
       cy="21.741251"
       r="0.65969443"
       style="fill:#60bded;fill-opacity:0.6;stroke:#60bded;stroke-width:0;stroke-linecap:round;stroke-linejoin:round;stroke-miterlimit:10;stroke-opacity:0.6"
       id="circle697" />
    <circle
       cx="55.35598"
       cy="34.310722"
       r="0.65969443"
       style="fill:#60bded;fill-opacity:0.6;stroke:#60bded;stroke-width:0;stroke-linecap:round;stroke-linejoin:round;stroke-miterlimit:10;stroke-opacity:0.6"
       id="circle699" />
    <circle
       cx="54.414059"
       cy="29.280111"
       r="0.65969443"
       style="fill:#60bded;fill-opacity:0.6;stroke:#60bded;stroke-width:0;stroke-linecap:round;stroke-linejoin:round;stroke-miterlimit:10;stroke-opacity:0.6"
       id="circle701" />
    <circle
       cx="28.909668"
       cy="26.768333"
       r="0.65969443"
       style="fill:#fb8483;fill-opacity:0.6;stroke:#fb8483;stroke-width:0;stroke-linecap:round;stroke-linejoin:round;stroke-miterlimit:10;stroke-opacity:0.6"
       id="circle703" />
    <circle
       cx="27.660833"
       cy="41.849583"
       r="0.65969443"
       style="fill:#fb8483;fill-opacity:0.6;stroke:#fb8483;stroke-width:0;stroke-linecap:round;stroke-linejoin:round;stroke-miterlimit:10;stroke-opacity:0.6"
       id="circle705" />
    <circle
       cx="26.729502"
       cy="36.822498"
       r="0.65969443"
       style="fill:#fb8483;fill-opacity:0.6;stroke:#fb8483;stroke-width:0;stroke-linecap:round;stroke-linejoin:round;stroke-miterlimit:10;stroke-opacity:0.6"
       id="circle707" />
    <circle
       cx="54.960865"
       cy="44.364891"
       r="0.65969443"
       style="fill:#60bded;fill-opacity:0.6;stroke:#60bded;stroke-width:0;stroke-linecap:round;stroke-linejoin:round;stroke-miterlimit:10;stroke-opacity:0.6"
       id="circle709" />
    <circle
       cx="27.921888"
       cy="41.849583"
       r="0.65969443"
       style="fill:#fb8483;fill-opacity:0.6;stroke:#fb8483;stroke-width:0;stroke-linecap:round;stroke-linejoin:round;stroke-miterlimit:10;stroke-opacity:0.6"
       id="circle711" />
    <circle
       cx="55.377144"
       cy="14.198863"
       r="0.65969443"
       style="fill:#60bded;fill-opacity:0.6;stroke:#60bded;stroke-width:0;stroke-linecap:round;stroke-linejoin:round;stroke-miterlimit:10;stroke-opacity:0.6"
       id="circle713" />
    <circle
       cx="26.874138"
       cy="36.822498"
       r="0.65969443"
       style="fill:#fb8483;fill-opacity:0.6;stroke:#fb8483;stroke-width:0;stroke-linecap:round;stroke-linejoin:round;stroke-miterlimit:10;stroke-opacity:0.6"
       id="circle715" />
    <circle
       cx="27.191639"
       cy="44.364891"
       r="0.65969443"
       style="fill:#fb8483;fill-opacity:0.6;stroke:#fb8483;stroke-width:0;stroke-linecap:round;stroke-linejoin:round;stroke-miterlimit:10;stroke-opacity:0.6"
       id="circle717" />
    <circle
       cx="27.124611"
       cy="34.310722"
       r="0.65969443"
       style="fill:#fb8483;fill-opacity:0.6;stroke:#fb8483;stroke-width:0;stroke-linecap:round;stroke-linejoin:round;stroke-miterlimit:10;stroke-opacity:0.6"
       id="circle719" />
    <circle
       cx="54.301174"
       cy="24.253029"
       r="0.65969443"
       style="fill:#60bded;fill-opacity:0.6;stroke:#60bded;stroke-width:0;stroke-linecap:round;stroke-linejoin:round;stroke-miterlimit:10;stroke-opacity:0.6"
       id="circle721" />
    <circle
       cx="27.470333"
       cy="19.225946"
       r="0.65969443"
       style="fill:#fb8483;fill-opacity:0.6;stroke:#fb8483;stroke-width:0;stroke-linecap:round;stroke-linejoin:round;stroke-miterlimit:10;stroke-opacity:0.6"
       id="circle723" />
    <circle
       cx="26.588388"
       cy="21.741251"
       r="0.65969443"
       style="fill:#fb8483;fill-opacity:0.6;stroke:#fb8483;stroke-width:0;stroke-linecap:round;stroke-linejoin:round;stroke-miterlimit:10;stroke-opacity:0.6"
       id="circle725" />
    <circle
       cx="54.294117"
       cy="39.337807"
       r="0.65969443"
       style="fill:#60bded;fill-opacity:0.6;stroke:#60bded;stroke-width:0;stroke-linecap:round;stroke-linejoin:round;stroke-miterlimit:10;stroke-opacity:0.6"
       id="circle727" />
    <circle
       cx="28.511026"
       cy="36.822498"
       r="0.65969443"
       style="fill:#fb8483;fill-opacity:0.6;stroke:#fb8483;stroke-width:0;stroke-linecap:round;stroke-linejoin:round;stroke-miterlimit:10;stroke-opacity:0.6"
       id="circle729" />
    <circle
       cx="28.013613"
       cy="31.795416"
       r="0.65969443"
       style="fill:#fb8483;fill-opacity:0.6;stroke:#fb8483;stroke-width:0;stroke-linecap:round;stroke-linejoin:round;stroke-miterlimit:10;stroke-opacity:0.6"
       id="circle731" />
    <circle
       cx="27.95364"
       cy="29.280111"
       r="0.65969443"
       style="fill:#fb8483;fill-opacity:0.6;stroke:#fb8483;stroke-width:0;stroke-linecap:round;stroke-linejoin:round;stroke-miterlimit:10;stroke-opacity:0.6"
       id="circle733" />
    <circle
       cx="27.427999"
       cy="31.795416"
       r="0.65969443"
       style="fill:#fb8483;fill-opacity:0.6;stroke:#fb8483;stroke-width:0;stroke-linecap:round;stroke-linejoin:round;stroke-miterlimit:10;stroke-opacity:0.6"
       id="circle735" />
    <circle
       cx="28.669779"
       cy="36.822498"
       r="0.65969443"
       style="fill:#fb8483;fill-opacity:0.6;stroke:#fb8483;stroke-width:0;stroke-linecap:round;stroke-linejoin:round;stroke-miterlimit:10;stroke-opacity:0.6"
       id="circle737" />
    <circle
       cx="54.43523"
       cy="39.337807"
       r="0.65969443"
       style="fill:#60bded;fill-opacity:0.6;stroke:#60bded;stroke-width:0;stroke-linecap:round;stroke-linejoin:round;stroke-miterlimit:10;stroke-opacity:0.6"
       id="circle739" />
    <circle
       cx="54.036591"
       cy="36.822498"
       r="0.65969443"
       style="fill:#60bded;fill-opacity:0.6;stroke:#60bded;stroke-width:0;stroke-linecap:round;stroke-linejoin:round;stroke-miterlimit:10;stroke-opacity:0.6"
       id="circle741" />
    <circle
       cx="26.796526"
       cy="24.253029"
       r="0.65969443"
       style="fill:#fb8483;fill-opacity:0.6;stroke:#fb8483;stroke-width:0;stroke-linecap:round;stroke-linejoin:round;stroke-miterlimit:10;stroke-opacity:0.6"
       id="circle743" />
    <circle
       cx="28.309944"
       cy="21.741251"
       r="0.65969443"
       style="fill:#fb8483;fill-opacity:0.6;stroke:#fb8483;stroke-width:0;stroke-linecap:round;stroke-linejoin:round;stroke-miterlimit:10;stroke-opacity:0.6"
       id="circle745" />
    <circle
       cx="55.228981"
       cy="44.364891"
       r="0.65969443"
       style="fill:#60bded;fill-opacity:0.6;stroke:#60bded;stroke-width:0;stroke-linecap:round;stroke-linejoin:round;stroke-miterlimit:10;stroke-opacity:0.6"
       id="circle747" />
    <circle
       cx="26.58486"
       cy="41.849583"
       r="0.65969443"
       style="fill:#fb8483;fill-opacity:0.6;stroke:#fb8483;stroke-width:0;stroke-linecap:round;stroke-linejoin:round;stroke-miterlimit:10;stroke-opacity:0.6"
       id="circle749" />
    <circle
       cx="54.724506"
       cy="44.364891"
       r="0.65969443"
       style="fill:#60bded;fill-opacity:0.6;stroke:#60bded;stroke-width:0;stroke-linecap:round;stroke-linejoin:round;stroke-miterlimit:10;stroke-opacity:0.6"
       id="circle751" />
    <circle
       cx="55.384197"
       cy="41.849583"
       r="0.65969443"
       style="fill:#60bded;fill-opacity:0.6;stroke:#60bded;stroke-width:0;stroke-linecap:round;stroke-linejoin:round;stroke-miterlimit:10;stroke-opacity:0.6"
       id="circle753" />
    <circle
       cx="26.440224"
       cy="31.795416"
       r="0.65969443"
       style="fill:#fb8483;fill-opacity:0.6;stroke:#fb8483;stroke-width:0;stroke-linecap:round;stroke-linejoin:round;stroke-miterlimit:10;stroke-opacity:0.6"
       id="circle755" />
    <circle
       cx="55.158421"
       cy="41.849583"
       r="0.65969443"
       style="fill:#60bded;fill-opacity:0.6;stroke:#60bded;stroke-width:0;stroke-linecap:round;stroke-linejoin:round;stroke-miterlimit:10;stroke-opacity:0.6"
       id="circle757" />
    <circle
       cx="28.712111"
       cy="44.364891"
       r="0.65969443"
       style="fill:#fb8483;fill-opacity:0.6;stroke:#fb8483;stroke-width:0;stroke-linecap:round;stroke-linejoin:round;stroke-miterlimit:10;stroke-opacity:0.6"
       id="circle759" />
    <circle
       cx="27.809"
       cy="39.337807"
       r="0.65969443"
       style="fill:#fb8483;fill-opacity:0.6;stroke:#fb8483;stroke-width:0;stroke-linecap:round;stroke-linejoin:round;stroke-miterlimit:10;stroke-opacity:0.6"
       id="circle761" />
    <circle
       cx="54.812698"
       cy="46.880192"
       r="0.65969443"
       style="fill:#60bded;fill-opacity:0.6;stroke:#60bded;stroke-width:0;stroke-linecap:round;stroke-linejoin:round;stroke-miterlimit:10;stroke-opacity:0.6"
       id="circle763" />
    <circle
       cx="54.280006"
       cy="26.768333"
       r="0.65969443"
       style="fill:#60bded;fill-opacity:0.6;stroke:#60bded;stroke-width:0;stroke-linecap:round;stroke-linejoin:round;stroke-miterlimit:10;stroke-opacity:0.6"
       id="circle765" />
    <circle
       cx="28.313473"
       cy="41.849583"
       r="0.65969443"
       style="fill:#fb8483;fill-opacity:0.6;stroke:#fb8483;stroke-width:0;stroke-linecap:round;stroke-linejoin:round;stroke-miterlimit:10;stroke-opacity:0.6"
       id="circle767" />
    <circle
       cx="26.874138"
       cy="46.880192"
       r="0.65969443"
       style="fill:#fb8483;fill-opacity:0.6;stroke:#fb8483;stroke-width:0;stroke-linecap:round;stroke-linejoin:round;stroke-miterlimit:10;stroke-opacity:0.6"
       id="circle769" />
    <circle
       cx="55.398312"
       cy="44.364891"
       r="0.65969443"
       style="fill:#60bded;fill-opacity:0.6;stroke:#60bded;stroke-width:0;stroke-linecap:round;stroke-linejoin:round;stroke-miterlimit:10;stroke-opacity:0.6"
       id="circle771" />
    <circle
       cx="28.36639"
       cy="39.337807"
       r="0.65969443"
       style="fill:#fb8483;fill-opacity:0.6;stroke:#fb8483;stroke-width:0;stroke-linecap:round;stroke-linejoin:round;stroke-miterlimit:10;stroke-opacity:0.6"
       id="circle773" />
    <circle
       cx="54.456394"
       cy="44.364891"
       r="0.65969443"
       style="fill:#60bded;fill-opacity:0.6;stroke:#60bded;stroke-width:0;stroke-linecap:round;stroke-linejoin:round;stroke-miterlimit:10;stroke-opacity:0.6"
       id="circle775" />
    <circle
       cx="27.262194"
       cy="41.849583"
       r="0.65969443"
       style="fill:#fb8483;fill-opacity:0.6;stroke:#fb8483;stroke-width:0;stroke-linecap:round;stroke-linejoin:round;stroke-miterlimit:10;stroke-opacity:0.6"
       id="circle777" />
    <circle
       cx="54.86562"
       cy="31.795416"
       r="0.65969443"
       style="fill:#60bded;fill-opacity:0.6;stroke:#60bded;stroke-width:0;stroke-linecap:round;stroke-linejoin:round;stroke-miterlimit:10;stroke-opacity:0.6"
       id="circle779" />
    <circle
       cx="54.075394"
       cy="41.849583"
       r="0.65969443"
       style="fill:#60bded;fill-opacity:0.6;stroke:#60bded;stroke-width:0;stroke-linecap:round;stroke-linejoin:round;stroke-miterlimit:10;stroke-opacity:0.6"
       id="circle781" />
    <circle
       cx="53.697922"
       cy="46.880192"
       r="0.65969443"
       style="fill:#60bded;fill-opacity:0.6;stroke:#60bded;stroke-width:0;stroke-linecap:round;stroke-linejoin:round;stroke-miterlimit:10;stroke-opacity:0.6"
       id="circle783" />
    <circle
       cx="29.026083"
       cy="44.364891"
       r="0.65969443"
       style="fill:#fb8483;fill-opacity:0.6;stroke:#fb8483;stroke-width:0;stroke-linecap:round;stroke-linejoin:round;stroke-miterlimit:10;stroke-opacity:0.6"
       id="circle785" />
    <circle
       cx="53.775532"
       cy="41.849583"
       r="0.65969443"
       style="fill:#60bded;fill-opacity:0.6;stroke:#60bded;stroke-width:0;stroke-linecap:round;stroke-linejoin:round;stroke-miterlimit:10;stroke-opacity:0.6"
       id="circle787" />
    <circle
       cx="54.978504"
       cy="34.310722"
       r="0.65969443"
       style="fill:#60bded;fill-opacity:0.6;stroke:#60bded;stroke-width:0;stroke-linecap:round;stroke-linejoin:round;stroke-miterlimit:10;stroke-opacity:0.6"
       id="circle789" />
    <circle
       cx="54.220036"
       cy="41.849583"
       r="0.65969443"
       style="fill:#60bded;fill-opacity:0.6;stroke:#60bded;stroke-width:0;stroke-linecap:round;stroke-linejoin:round;stroke-miterlimit:10;stroke-opacity:0.6"
       id="circle791" />
    <circle
       cx="27.678471"
       cy="41.849583"
       r="0.65969443"
       style="fill:#fb8483;fill-opacity:0.6;stroke:#fb8483;stroke-width:0;stroke-linecap:round;stroke-linejoin:round;stroke-miterlimit:10;stroke-opacity:0.6"
       id="circle793" />
    <circle
       cx="53.359257"
       cy="44.364891"
       r="0.65969443"
       style="fill:#60bded;fill-opacity:0.6;stroke:#60bded;stroke-width:0;stroke-linecap:round;stroke-linejoin:round;stroke-miterlimit:10;stroke-opacity:0.6"
       id="circle795" />
    <circle
       cx="54.350559"
       cy="41.849583"
       r="0.65969443"
       style="fill:#60bded;fill-opacity:0.6;stroke:#60bded;stroke-width:0;stroke-linecap:round;stroke-linejoin:round;stroke-miterlimit:10;stroke-opacity:0.6"
       id="circle797" />
    <circle
       cx="54.477562"
       cy="41.849583"
       r="0.65969443"
       style="fill:#60bded;fill-opacity:0.6;stroke:#60bded;stroke-width:0;stroke-linecap:round;stroke-linejoin:round;stroke-miterlimit:10;stroke-opacity:0.6"
       id="circle799" />
    <circle
       cx="26.69775"
       cy="39.337807"
       r="0.65969443"
       style="fill:#fb8483;fill-opacity:0.6;stroke:#fb8483;stroke-width:0;stroke-linecap:round;stroke-linejoin:round;stroke-miterlimit:10;stroke-opacity:0.6"
       id="circle801" />
    <circle
       cx="27.756083"
       cy="36.822498"
       r="0.65969443"
       style="fill:#fb8483;fill-opacity:0.6;stroke:#fb8483;stroke-width:0;stroke-linecap:round;stroke-linejoin:round;stroke-miterlimit:10;stroke-opacity:0.6"
       id="circle803" />
    <circle
       cx="28.518084"
       cy="39.337807"
       r="0.65969443"
       style="fill:#fb8483;fill-opacity:0.6;stroke:#fb8483;stroke-width:0;stroke-linecap:round;stroke-linejoin:round;stroke-miterlimit:10;stroke-opacity:0.6"
       id="circle805" />
    <circle
       cx="55.58881"
       cy="36.822498"
       r="0.65969443"
       style="fill:#60bded;fill-opacity:0.6;stroke:#60bded;stroke-width:0;stroke-linecap:round;stroke-linejoin:round;stroke-miterlimit:10;stroke-opacity:0.6"
       id="circle807" />
    <circle
       cx="28.828527"
       cy="36.822498"
       r="0.65969443"
       style="fill:#fb8483;fill-opacity:0.6;stroke:#fb8483;stroke-width:0;stroke-linecap:round;stroke-linejoin:round;stroke-miterlimit:10;stroke-opacity:0.6"
       id="circle809" />
    <circle
       cx="27.202221"
       cy="31.795416"
       r="0.65969443"
       style="fill:#fb8483;fill-opacity:0.6;stroke:#fb8483;stroke-width:0;stroke-linecap:round;stroke-linejoin:round;stroke-miterlimit:10;stroke-opacity:0.6"
       id="circle811" />
    <circle
       cx="28.874388"
       cy="39.337807"
       r="0.65969443"
       style="fill:#fb8483;fill-opacity:0.6;stroke:#fb8483;stroke-width:0;stroke-linecap:round;stroke-linejoin:round;stroke-miterlimit:10;stroke-opacity:0.6"
       id="circle813" />
    <circle
       cx="27.809"
       cy="39.337807"
       r="0.65969443"
       style="fill:#fb8483;fill-opacity:0.6;stroke:#fb8483;stroke-width:0;stroke-linecap:round;stroke-linejoin:round;stroke-miterlimit:10;stroke-opacity:0.6"
       id="circle815" />
    <circle
       cx="26.838861"
       cy="41.849583"
       r="0.65969443"
       style="fill:#fb8483;fill-opacity:0.6;stroke:#fb8483;stroke-width:0;stroke-linecap:round;stroke-linejoin:round;stroke-miterlimit:10;stroke-opacity:0.6"
       id="circle817" />
    <circle
       cx="27.170473"
       cy="34.310722"
       r="0.65969443"
       style="fill:#fb8483;fill-opacity:0.6;stroke:#fb8483;stroke-width:0;stroke-linecap:round;stroke-linejoin:round;stroke-miterlimit:10;stroke-opacity:0.6"
       id="circle819" />
    <circle
       cx="26.440224"
       cy="41.849583"
       r="0.65969443"
       style="fill:#fb8483;fill-opacity:0.6;stroke:#fb8483;stroke-width:0;stroke-linecap:round;stroke-linejoin:round;stroke-miterlimit:10;stroke-opacity:0.6"
       id="circle821" />
    <circle
       cx="27.734917"
       cy="39.337807"
       r="0.65969443"
       style="fill:#fb8483;fill-opacity:0.6;stroke:#fb8483;stroke-width:0;stroke-linecap:round;stroke-linejoin:round;stroke-miterlimit:10;stroke-opacity:0.6"
       id="circle823" />
    <circle
       cx="28.391085"
       cy="36.822498"
       r="0.65969443"
       style="fill:#fb8483;fill-opacity:0.6;stroke:#fb8483;stroke-width:0;stroke-linecap:round;stroke-linejoin:round;stroke-miterlimit:10;stroke-opacity:0.6"
       id="circle825" />
    <circle
       cx="27.459751"
       cy="44.364891"
       r="0.65969443"
       style="fill:#fb8483;fill-opacity:0.6;stroke:#fb8483;stroke-width:0;stroke-linecap:round;stroke-linejoin:round;stroke-miterlimit:10;stroke-opacity:0.6"
       id="circle827" />
    <circle
       cx="53.331032"
       cy="26.768333"
       r="0.65969443"
       style="fill:#60bded;fill-opacity:0.6;stroke:#60bded;stroke-width:0;stroke-linecap:round;stroke-linejoin:round;stroke-miterlimit:10;stroke-opacity:0.6"
       id="circle829" />
    <circle
       cx="27.879555"
       cy="26.768333"
       r="0.65969443"
       style="fill:#fb8483;fill-opacity:0.6;stroke:#fb8483;stroke-width:0;stroke-linecap:round;stroke-linejoin:round;stroke-miterlimit:10;stroke-opacity:0.6"
       id="circle831" />
    <circle
       cx="28.038305"
       cy="21.741251"
       r="0.65969443"
       style="fill:#fb8483;fill-opacity:0.6;stroke:#fb8483;stroke-width:0;stroke-linecap:round;stroke-linejoin:round;stroke-miterlimit:10;stroke-opacity:0.6"
       id="circle833" />
    <circle
       cx="27.008196"
       cy="39.337807"
       r="0.65969443"
       style="fill:#fb8483;fill-opacity:0.6;stroke:#fb8483;stroke-width:0;stroke-linecap:round;stroke-linejoin:round;stroke-miterlimit:10;stroke-opacity:0.6"
       id="circle835" />
    <circle
       cx="53.465092"
       cy="29.280111"
       r="0.65969443"
       style="fill:#60bded;fill-opacity:0.6;stroke:#60bded;stroke-width:0;stroke-linecap:round;stroke-linejoin:round;stroke-miterlimit:10;stroke-opacity:0.6"
       id="circle837" />
    <circle
       cx="56.142891"
       cy="39.337807"
       r="0.65969443"
       style="fill:#60bded;fill-opacity:0.6;stroke:#60bded;stroke-width:0;stroke-linecap:round;stroke-linejoin:round;stroke-miterlimit:10;stroke-opacity:0.6"
       id="circle839" />
    <circle
       cx="28.47575"
       cy="44.364891"
       r="0.65969443"
       style="fill:#fb8483;fill-opacity:0.6;stroke:#fb8483;stroke-width:0;stroke-linecap:round;stroke-linejoin:round;stroke-miterlimit:10;stroke-opacity:0.6"
       id="circle841" />
    <circle
       cx="56.107616"
       cy="26.768333"
       r="0.65969443"
       style="fill:#60bded;fill-opacity:0.6;stroke:#60bded;stroke-width:0;stroke-linecap:round;stroke-linejoin:round;stroke-miterlimit:10;stroke-opacity:0.6"
       id="circle843" />
    <line
       x1="30.299465"
       y1="34.169613"
       x2="40.228527"
       y2="34.169613"
       style="fill:none;stroke:#000000;stroke-width:0.4;stroke-linecap:butt;stroke-linejoin:miter;stroke-miterlimit:10;stroke-dasharray:none"
       id="line845" />
    <line
       x1="56.853046"
       y1="36.131058"
       x2="65.697578"
       y2="36.131058"
       style="fill:none;stroke:#000000;stroke-width:0.4;stroke-linecap:butt;stroke-linejoin:miter;stroke-miterlimit:10;stroke-dasharray:none"
       id="line847" />
    <text
       x="126.23"
       y="11.64"
       text-anchor="middle"
       style="font-size:11.04px;font-family:Arial;white-space:pre"
       textLength="11.65"
       lengthAdjust="spacingAndGlyphs"
       id="text849"
       transform="matrix(0.35277777,0,0,0.35277777,-0.78039159,-0.87185282)">ns</text>
    <line
       x1="30.472189"
       y1="5.2959676"
       x2="30.472189"
       y2="4.089468"
       style="fill:none;stroke:#000000;stroke-width:0.225778;stroke-linecap:round;stroke-linejoin:round;stroke-miterlimit:10"
       id="line851" />
    <line
       x1="30.472189"
       y1="4.089468"
       x2="57.025772"
       y2="4.089468"
       style="fill:none;stroke:#000000;stroke-width:0.225778;stroke-linecap:round;stroke-linejoin:round;stroke-miterlimit:10"
       id="line853" />
    <line
       x1="57.025772"
       y1="4.089468"
       x2="57.025772"
       y2="5.2959676"
       style="fill:none;stroke:#000000;stroke-width:0.225778;stroke-linecap:round;stroke-linejoin:round;stroke-miterlimit:10"
       id="line855" />
    <polyline
       points="43.43,138.66 43.43,6.97 "
       style="fill:none;stroke:#000000;stroke-width:1.07;stroke-linecap:square;stroke-linejoin:round;stroke-miterlimit:10"
       id="polyline859"
       transform="matrix(0.35277777,0,0,0.35277777,-1.1697123,0.07364034)"
       clip-path="url(#clipPath4741)" />
    <text
       x="36.950001"
       y="122.73"
       text-anchor="end"
       style="font-size:12px;font-family:Arial;white-space:pre"
       textLength="13.35"
       lengthAdjust="spacingAndGlyphs"
       id="text861"
       transform="matrix(0.35277777,0,0,0.35277777,-1.1697123,0.07364034)">20</text>
    <text
       x="36.950001"
       y="87.099998"
       text-anchor="end"
       style="font-size:12px;font-family:Arial;white-space:pre"
       textLength="13.35"
       lengthAdjust="spacingAndGlyphs"
       id="text863"
       transform="matrix(0.35277777,0,0,0.35277777,-1.1697123,0.07364034)">25</text>
    <text
       x="36.950001"
       y="51.470001"
       text-anchor="end"
       style="font-size:12px;font-family:Arial;white-space:pre"
       textLength="13.35"
       lengthAdjust="spacingAndGlyphs"
       id="text865"
       transform="matrix(0.35277777,0,0,0.35277777,-1.1697123,0.07364034)">30</text>
    <text
       x="36.950001"
       y="15.84"
       text-anchor="end"
       style="font-size:12px;font-family:Arial;white-space:pre"
       textLength="13.35"
       lengthAdjust="spacingAndGlyphs"
       id="text867"
       transform="matrix(0.35277777,0,0,0.35277777,-1.1697123,0.07364034)">35</text>
    <polyline
       points="39.94,118.42 43.43,118.42 "
       style="fill:none;stroke:#000000;stroke-width:1.07;stroke-linecap:butt;stroke-linejoin:round;stroke-miterlimit:10"
       id="polyline869"
       transform="matrix(0.35277777,0,0,0.35277777,-1.1697123,0.07364034)"
       clip-path="url(#clipPath4737)" />
    <polyline
       points="39.94,82.79 43.43,82.79 "
       style="fill:none;stroke:#000000;stroke-width:1.07;stroke-linecap:butt;stroke-linejoin:round;stroke-miterlimit:10"
       id="polyline871"
       transform="matrix(0.35277777,0,0,0.35277777,-1.1697123,0.07364034)"
       clip-path="url(#clipPath4733)" />
    <polyline
       points="39.94,47.16 43.43,47.16 "
       style="fill:none;stroke:#000000;stroke-width:1.07;stroke-linecap:butt;stroke-linejoin:round;stroke-miterlimit:10"
       id="polyline873"
       transform="matrix(0.35277777,0,0,0.35277777,-1.1697123,0.07364034)" />
    <polyline
       points="39.94,11.53 43.43,11.53 "
       style="fill:none;stroke:#000000;stroke-width:1.07;stroke-linecap:butt;stroke-linejoin:round;stroke-miterlimit:10"
       id="polyline875"
       transform="matrix(0.35277777,0,0,0.35277777,-1.1697123,0.07364034)" />
    <polyline
       points="43.43,138.66 209.03,138.66 "
       style="fill:none;stroke:#000000;stroke-width:1.07;stroke-linecap:square;stroke-linejoin:round;stroke-miterlimit:10"
       id="polyline877"
       transform="matrix(0.35277777,0,0,0.35277777,-1.1697123,0.07364034)"
       clip-path="url(#clipPath4729)" />
    <polyline
       points="88.59,142.15 88.59,138.66 "
       style="fill:none;stroke:#000000;stroke-width:1.07;stroke-linecap:butt;stroke-linejoin:round;stroke-miterlimit:10"
       id="polyline879"
       transform="matrix(0.35277777,0,0,0.35277777,-1.1697123,0.07364034)"
       clip-path="url(#clipPath4725)" />
    <polyline
       points="163.86,142.15 163.86,138.66 "
       style="fill:none;stroke:#000000;stroke-width:1.07;stroke-linecap:butt;stroke-linejoin:round;stroke-miterlimit:10"
       id="polyline881"
       transform="matrix(0.35277777,0,0,0.35277777,-1.1697123,0.07364034)"
       clip-path="url(#clipPath4721)" />
    <text
       x="88.589996"
       y="153.75"
       text-anchor="middle"
       style="font-size:12px;font-family:Arial;white-space:pre"
       textLength="7.3299999"
       lengthAdjust="spacingAndGlyphs"
       id="text883"
       transform="matrix(2.1983441,0,0,0.35277777,-164.74657,0.07364034)">F (N=54)</text>
    <text
       x="163.86"
       y="153.75"
       text-anchor="middle"
       style="font-size:12px;font-family:Arial;white-space:pre"
       textLength="9.9899998"
       lengthAdjust="spacingAndGlyphs"
       id="text885"
       transform="matrix(1.702152,0,0,0.35277777,-222.33936,0.07364034)">M (N=40)</text>
    <text
       x="126.23"
       y="169.92999"
       text-anchor="middle"
       style="font-size:14px;font-family:Arial;white-space:pre"
       textLength="24.120001"
       lengthAdjust="spacingAndGlyphs"
       id="text887"
       transform="matrix(0.4805694,0,0,0.4805694,-17.413131,-18.766396)">Sex</text>
    <text
       transform="matrix(0,-0.35277777,0.35277777,0,4.8345653,25.762918)"
       text-anchor="middle"
       style="font-size:14px;font-family:Arial;white-space:pre"
       textLength="72.349998"
       lengthAdjust="spacingAndGlyphs"
       id="text889">Age (years)</text>
  </g>
</svg>
